<!-- icon666.com - MILLIONS OF FREE VECTOR ICONS --><svg viewBox="0 0 128 128" xmlns="http://www.w3.org/2000/svg"><g><path d="m79.884 20.43a8.43 8.43 0 0 0 -8.43-8.43h-43.722a8.43 8.43 0 0 0 -8.43 8.43v87.14a8.43 8.43 0 0 0 8.43 8.43h43.722a8.43 8.43 0 0 0 8.43-8.43z" fill="#01607e"></path><path d="m73.76 21.9v84.7a3.361 3.361 0 0 1 -3.29 3.42h-41.75a3.354 3.354 0 0 1 -3.29-3.42v-84.7a3.354 3.354 0 0 1 3.29-3.42h8.5l6.19 5.56h12.37l6.18-5.56h8.51a3.361 3.361 0 0 1 3.29 3.42z" fill="#96dd3d"></path><path d="m40.594 56.058a1.75 1.75 0 0 1 -1.75-1.75v-10a1.75 1.75 0 0 1 3.5 0v10a1.751 1.751 0 0 1 -1.75 1.75z" fill="#ffd92d"></path><path d="m40.593 34.308a5 5 0 1 1 -5 5 5 5 0 0 1 5-5z" fill="#f9285e" fill-rule="evenodd"></path><path d="m73.76 52.18v-10.19l-.17-.18-48 38-.16.22v10.14l.16.08 26-20.5 22 23.06.17-.12v-11.35l-.17-.06-15.5-16.53 15.5-12.5z" fill="#cae7f7"></path><path d="m86.128 55.192a23.063 23.063 0 1 1 -22.57 23.058 22.828 22.828 0 0 1 22.57-23.058z" fill="#ffd92d" fill-rule="evenodd"></path><path d="m86.128 91.808s9.835-9.152 9.835-16.165a9.836 9.836 0 0 0 -19.671 0c0 7.013 9.836 16.165 9.836 16.165z" fill="#f9285e"></path><path d="m86.128 70.939a4.448 4.448 0 1 1 -4.448 4.448 4.45 4.45 0 0 1 4.448-4.448z" fill="#ffd92d"></path></g></svg>